<svg xmlns="http://www.w3.org/2000/svg" xmlns:xlink="http://www.w3.org/1999/xlink" fill="none" version="1.1" width="16" height="16" viewBox="0 0 16 16"><g transform="matrix(1,0,0,-1,0,32)"><path d="M8,16Q10.1875,16.03125,12,17.0625Q13.8125,18.125,14.9375,20Q16,21.90625,16,24Q16,26.0938,14.9375,28Q13.8125,29.875,12,30.9375Q10.1875,31.9688,8,32Q5.8125,31.9688,4,30.9375Q2.1875,29.875,1.0625,28Q0,26.0938,0,24Q0,21.90625,1.0625,20Q2.1875,18.125,4,17.0625Q5.8125,16.03125,8,16ZM7.25,21.25L7.25,23.25L7.25,21.25L7.25,23.25L5.25,23.25Q4.5625,23.3125,4.5,24Q4.5625,24.6875,5.25,24.75L7.25,24.75L7.25,26.75Q7.3125,27.4375,8,27.5Q8.6875,27.4375,8.75,26.75L8.75,24.75L10.75,24.75Q11.4375,24.6875,11.5,24Q11.4375,23.3125,10.75,23.25L8.75,23.25L8.75,21.25Q8.6875,20.5625,8,20.5Q7.3125,20.5625,7.25,21.25Z" fill="#2564CF" fill-opacity="1" style="mix-blend-mode:passthrough"/></g></svg>